<svg xmlns="http://www.w3.org/2000/svg" version="1.1" xmlns:xlink="http://www.w3.org/1999/xlink" width="512" height="512" x="0" y="0" viewBox="0 0 128 128" style="enable-background:new 0 0 512 512" xml:space="preserve" class=""><g><path d="M64 28.47c-19.58 0-35.51 15.93-35.51 35.51S44.42 99.48 64 99.48s35.51-15.93 35.51-35.51S83.58 28.47 64 28.47zm0 67.01c-17.37 0-31.51-14.13-31.51-31.51S46.63 32.47 64 32.47s31.51 14.13 31.51 31.5S81.37 95.48 64 95.48zM64 17.22c1.1 0 2-.9 2-2V4c0-1.1-.9-2-2-2s-2 .9-2 2v11.22c0 1.1.9 2 2 2zM64 110.73c-1.1 0-2 .9-2 2v11.22c0 1.1.9 2 2 2s2-.9 2-2v-11.22a2 2 0 0 0-2-2zM104.99 20.15l-7.93 7.93a2.004 2.004 0 0 0 1.41 3.42c.51 0 1.02-.2 1.41-.59l7.93-7.93c.78-.78.78-2.05 0-2.83s-2.04-.78-2.82 0zM28.11 97.03l-7.93 7.93a2.004 2.004 0 0 0 1.41 3.42c.51 0 1.02-.2 1.41-.59l7.93-7.93c.78-.78.78-2.05 0-2.83s-2.04-.78-2.82 0zM123.97 61.97h-11.22c-1.1 0-2 .9-2 2s.9 2 2 2h11.22a2 2 0 1 0 0-4zM15.25 61.97H4.03c-1.1 0-2 .9-2 2s.9 2 2 2h11.22c1.1 0 2-.9 2-2s-.9-2-2-2zM99.89 97.03c-.78-.78-2.05-.78-2.83 0s-.78 2.05 0 2.83l7.93 7.93c.39.39.9.59 1.41.59s1.02-.2 1.41-.59c.78-.78.78-2.05 0-2.83zM28.11 30.91c.39.39.9.59 1.41.59s1.02-.2 1.41-.59c.78-.78.78-2.05 0-2.83L23 20.15c-.78-.78-2.05-.78-2.83 0s-.78 2.05 0 2.83z" fill="#118b50" opacity="1" data-original="#000000" class=""></path></g></svg>